<svg data-name="Game Title" xmlns="http://www.w3.org/2000/svg" width="216.38" height="90.91" viewBox="0 0 216.38 90.91">
    <g data-name="Group 11">
        <path data-name="Path 78" d="M33.9 73.42H0V71.1h33.9zm-3.01 17.02H4.38v-8.25h22.39v-3.35H4.43v-2.32h25.09v7.86H7.13v3.74h23.76v2.32zM28.01 62.6H7.35v3.31h21.82v2.32H4.6V55.04h24.57v2.32H7.35v3.05h20.67v2.19z" style="fill:#fbf8cc"/>
        <path data-name="Path 79" d="M59.98 74.58a157.261 157.261 0 0 1-20.97 1.07V64.31h14.27v-6.14H38.84v-2.36h17.19v10.78H41.76v6.7q13.065 0 17.83-1.12l.39 2.41zm8.85 15.43H43.14V79.35h2.75v8.29h22.94V90zm-1.07-9.41h-2.75V53.32h2.75z" style="fill:#fbf8cc"/>
        <path data-name="Path 80" d="M74.33 82.87h33.9v2.36h-33.9zm30.38-25.18v2.32H82.32a82.826 82.826 0 0 0 .37 10.27A48.973 48.973 0 0 0 84 79.22l-2.75.39a57.979 57.979 0 0 1-1.37-9.93q-.48-6.5-.47-11.99h25.31z" style="fill:#fbf8cc"/>
        <path data-name="Path 81" d="M134.06 72.51a154.136 154.136 0 0 1-20.71 1.07V63.22h14.27v-5.29h-14.35v-2.32h17.1v9.93H116.1v5.67q12.81 0 17.62-1.12l.34 2.41zm8.08 17.79h-25.09V77.67h25.09zm-2.75-2.32v-7.95H119.8v7.95zm2.71-12.37h-2.75v-22.3h2.75z" style="fill:#fbf8cc"/>
        <path data-name="Path 82" d="m169.94 72.21-1.5 2.19a15.193 15.193 0 0 1-5.22-2.99 15.593 15.593 0 0 1-3.93-4.75 13.361 13.361 0 0 1-3.63 5.07 17.03 17.03 0 0 1-5.99 3.65l-1.5-2.06a14.669 14.669 0 0 0 6.75-4.25 9.517 9.517 0 0 0 2.96-6.49v-.04h-8.42v-2.36h19.51v2.36h-8.29a8.478 8.478 0 0 0 2.9 6.04 12.989 12.989 0 0 0 6.38 3.63zm10.18 16.59-1.46 2.11a20.674 20.674 0 0 1-7.84-3.16c-2.53-1.65-4.15-3.32-4.83-5.01a12.346 12.346 0 0 1-4.73 5.05 19.621 19.621 0 0 1-7.95 3.07l-1.5-2.06a17.645 17.645 0 0 0 8.49-3.29q3.63-2.685 4.15-5.61h-10.7v-2.32h24.23v2.32h-10.44q.555 2.79 4.32 5.59a16.956 16.956 0 0 0 8.27 3.31zm-15.9-32.14h-9.97v-2.32h9.97zm18.99 9.41h-5.84v9.58h-2.75V53.31h2.75v10.44h5.84z" style="fill:#fbf8cc"/>
        <path data-name="Path 83" d="M205.17 57.39a25.789 25.789 0 0 1-4.92 15.19 36.442 36.442 0 0 1-12.35 10.55l-1.68-2.19a31.243 31.243 0 0 0 11.28-9.11 22.857 22.857 0 0 0 4.66-12.07h-14.35V57.4h17.36zm11.21 33.47h-2.75V53.31h2.75z" style="fill:#fbf8cc"/>
    </g>
    <g data-name="Group 12">
        <path data-name="Path 84" d="M140.87 26.22c-.17 1.45-.29 2.91-.51 4.36a32.564 32.564 0 0 1-2.01 7.25c-9.14-5.35-18.26-5.35-27.54.08-.59-2.17-1.29-4.25-1.7-6.38a35.612 35.612 0 0 1 1-17.89 23.335 23.335 0 0 1 6.38-10.35 11.873 11.873 0 0 1 16.27-.03 23.61 23.61 0 0 1 6.42 10.4 33.535 33.535 0 0 1 1.57 8.24 4.48 4.48 0 0 0 .11.62v3.7zm-4.12 7.59c.07-.21.13-.34.16-.48.32-1.69.72-3.37.92-5.07a31.265 31.265 0 0 0-2.08-15.83 17.3 17.3 0 0 0-5.83-7.83 8.488 8.488 0 0 0-8.46-1.13 12.368 12.368 0 0 0-5.27 4.3 25.478 25.478 0 0 0-4.54 11.51c-.15.94-.22 1.9-.33 2.85 3.45-5.99 10.88-5.42 13.78-1.57a1.8 1.8 0 0 0-1.55 1.95 6.015 6.015 0 0 0 .4 2.04 2.228 2.228 0 0 0 1.56 1.57 4.9 4.9 0 0 0 1.61-.25 8.451 8.451 0 0 1-1.73 5.18 28.068 28.068 0 0 1 11.38 2.76zm-20.38-5.27a3.9 3.9 0 0 0-1.16-2.64 1.542 1.542 0 0 0-1.61-.52 1.615 1.615 0 0 0-1.06 1.4 4.042 4.042 0 0 0 .6 2.93 1.984 1.984 0 0 0 2.09 1.14c.73-.22 1.15-.98 1.15-2.32z" style="fill:#c8b6ff"/>
        <path data-name="Path 85" d="M105.41 37.84c-9.16-5.34-18.24-5.34-27.41 0-.13-.36-.27-.73-.41-1.1a36.017 36.017 0 0 1-1.89-16.01 30.093 30.093 0 0 1 4.14-12.94 16.583 16.583 0 0 1 6.68-6.5 11.045 11.045 0 0 1 10.36 0 17.514 17.514 0 0 1 7.67 8.28 33.267 33.267 0 0 1 3.29 16.89 35.482 35.482 0 0 1-2.22 10.82c-.07.17-.14.35-.22.55zm-1.61-4.03a3.276 3.276 0 0 0 .16-.47c.31-1.67.72-3.33.92-5.01a31.317 31.317 0 0 0-1.97-15.65 17.349 17.349 0 0 0-5.97-8.1 8.445 8.445 0 0 0-8.4-1.1 13.329 13.329 0 0 0-6.25 5.71 25.838 25.838 0 0 0-3.47 9.46c-.2 1.16-.31 2.33-.46 3.5 3.49-6.08 10.97-5.33 13.79-1.59a1.908 1.908 0 0 0-1.55 2.2 6.877 6.877 0 0 0 .57 2.12 1.971 1.971 0 0 0 1.49 1.29 4.57 4.57 0 0 0 1.5-.31 8.394 8.394 0 0 1-1.74 5.2 28.062 28.062 0 0 1 11.38 2.75zM83.41 28.8a3.873 3.873 0 0 0-1.14-2.88 1.578 1.578 0 0 0-1.61-.54 1.6 1.6 0 0 0-1.07 1.4 3.937 3.937 0 0 0 .9 3.34 1.655 1.655 0 0 0 1.83.73 1.761 1.761 0 0 0 1.08-1.66 2.411 2.411 0 0 0 0-.38z" style="fill:#c8b6ff"/>
        <path data-name="Path 86" d="M136.75 33.81a28.068 28.068 0 0 0-11.38-2.76 8.389 8.389 0 0 0 1.73-5.18 4.9 4.9 0 0 1-1.61.25 2.227 2.227 0 0 1-1.56-1.57 6.54 6.54 0 0 1-.4-2.04 1.8 1.8 0 0 1 1.55-1.95c-2.9-3.84-10.33-4.42-13.78 1.57.11-.95.18-1.91.33-2.85a25.478 25.478 0 0 1 4.54-11.51 12.167 12.167 0 0 1 5.27-4.3 8.488 8.488 0 0 1 8.46 1.13 17.179 17.179 0 0 1 5.83 7.83 31.251 31.251 0 0 1 2.08 15.83c-.2 1.7-.6 3.38-.92 5.07a4.452 4.452 0 0 1-.16.48z" style="fill:#fff"/>
        <path data-name="Path 87" d="M116.37 28.54c0 1.34-.43 2.1-1.15 2.32a2 2 0 0 1-2.09-1.14 4.042 4.042 0 0 1-.6-2.93 1.592 1.592 0 0 1 1.06-1.4 1.555 1.555 0 0 1 1.61.52 3.84 3.84 0 0 1 1.16 2.64z" style="fill:#fff"/>
        <path data-name="Path 88" d="M103.8 33.8a27.9 27.9 0 0 0-11.38-2.75 8.414 8.414 0 0 0 1.74-5.2 4.842 4.842 0 0 1-1.5.31 1.953 1.953 0 0 1-1.49-1.29 6.877 6.877 0 0 1-.57-2.12 1.908 1.908 0 0 1 1.55-2.2c-2.82-3.74-10.3-4.49-13.79 1.59.15-1.17.26-2.34.46-3.5a25.838 25.838 0 0 1 3.47-9.46 13.279 13.279 0 0 1 6.25-5.71 8.445 8.445 0 0 1 8.4 1.1 17.349 17.349 0 0 1 5.97 8.1 31.22 31.22 0 0 1 1.97 15.65c-.2 1.68-.6 3.34-.92 5.01a4.387 4.387 0 0 1-.16.47z" style="fill:#fff"/>
        <path data-name="Path 89" d="M83.41 28.79c0 .13.01.26 0 .38a1.761 1.761 0 0 1-1.08 1.66 1.63 1.63 0 0 1-1.83-.73 4 4 0 0 1-.9-3.34 1.61 1.61 0 0 1 1.07-1.4 1.56 1.56 0 0 1 1.61.54 3.912 3.912 0 0 1 1.14 2.88z" style="fill:#fff"/>
    </g>
</svg>
